<svg aria-hidden="true" style="position:absolute;width:0;height:0" xmlns="http://www.w3.org/2000/svg" overflow="hidden"><defs><symbol id="android" viewBox="0 0 32 32"><path d="M4.342 10.435H4.26c-1.051 0-1.908.86-1.908 1.908v8.306c0 1.052.857 1.909 1.908 1.909h.083c1.051 0 1.908-.86 1.908-1.909v-8.306a1.916 1.916 0 00-1.909-1.908zm2.821 13.418c0 .965.788 1.75 1.753 1.75h1.873v4.486c0 1.054.86 1.91 1.908 1.91h.082c1.052 0 1.91-.858 1.91-1.91v-4.486h2.618v4.486c0 1.054.862 1.91 1.91 1.91h.081a1.913 1.913 0 001.909-1.91v-4.486h1.875c.963 0 1.752-.786 1.752-1.75V10.739H7.163v13.114zM20.401 2.786L21.889.489a.315.315 0 00-.093-.437.313.313 0 00-.437.093l-1.543 2.376a10.06 10.06 0 00-3.815-.741c-1.366 0-2.656.266-3.817.741L10.644.145a.316.316 0 00-.44-.093.315.315 0 00-.093.437L11.6 2.786C8.915 4.102 7.104 6.582 7.104 9.427c0 .175.011.347.026.518h17.741a5.91 5.91 0 00.025-.518c0-2.845-1.812-5.325-4.496-6.641zm-8.514 4.113a.853.853 0 110-1.704.853.853 0 110 1.704zm8.225 0a.853.853 0 11-.003-1.705.853.853 0 01.003 1.705zm7.627 3.536h-.079c-1.051 0-1.91.86-1.91 1.908v8.306c0 1.052.861 1.909 1.91 1.909h.081c1.052 0 1.908-.86 1.908-1.909v-8.306a1.914 1.914 0 00-1.909-1.908z"/></symbol><symbol id="apple" viewBox="0 0 32 32"><path d="M4.274 11.763c-2.705 4.695-.986 11.819 2.006 16.139C7.773 30.062 9.285 32 11.356 32l.118-.002c.973-.039 1.676-.338 2.356-.628.763-.325 1.552-.662 2.79-.662 1.178 0 1.929.325 2.656.64.716.31 1.454.631 2.545.61 2.333-.043 3.765-2.135 5.028-3.981a17.623 17.623 0 002.203-4.513l.009-.028a.263.263 0 00-.158-.33c-.411-.168-4.014-1.766-4.052-6.123-.035-3.54 2.703-5.414 3.252-5.754l.026-.016a.263.263 0 00.074-.368c-1.89-2.766-4.787-3.183-5.953-3.233a5.214 5.214 0 00-.519-.025c-1.37 0-2.682.517-3.736.933-.728.287-1.356.535-1.79.535-.487 0-1.119-.251-1.851-.541-.979-.389-2.088-.829-3.263-.829l-.083.001c-2.731.04-5.312 1.603-6.734 4.077z"/><path d="M22.253 0c-1.654.067-3.638 1.085-4.823 2.474-1.008 1.167-1.992 3.114-1.733 5.076a.261.261 0 00.24.227c.112.009.226.013.339.013 1.617 0 3.362-.895 4.553-2.335 1.254-1.521 1.888-3.473 1.696-5.222A.263.263 0 0022.254 0z"/></symbol></defs></svg>