<svg aria-hidden="true" style="position: absolute; width: 0; height: 0; overflow: hidden;" version="1.1" xmlns="http://www.w3.org/2000/svg" xmlns:xlink="http://www.w3.org/1999/xlink">
<defs>
<symbol id="android" viewBox="0 0 32 32">
<path d="M4.342 10.435h-0.082c-1.051 0-1.908 0.86-1.908 1.908v8.306c0 1.052 0.857 1.909 1.908 1.909h0.083c1.051 0 1.908-0.86 1.908-1.909v-8.306c-0.001-1.048-0.859-1.908-1.909-1.908z"></path>
<path d="M7.163 23.853c0 0.965 0.788 1.75 1.753 1.75h1.873v4.486c0 1.054 0.86 1.91 1.908 1.91h0.082c1.052 0 1.91-0.858 1.91-1.91v-4.486h2.618v4.486c0 1.054 0.862 1.91 1.91 1.91h0.081c1.052 0 1.909-0.858 1.909-1.91v-4.486h1.875c0.963 0 1.752-0.786 1.752-1.75v-13.114h-17.671v13.114z"></path>
<path d="M20.401 2.786l1.488-2.297c0.096-0.145 0.053-0.343-0.093-0.437-0.145-0.096-0.343-0.056-0.437 0.093l-1.543 2.376c-1.157-0.474-2.45-0.741-3.815-0.741-1.366 0-2.656 0.266-3.817 0.741l-1.54-2.376c-0.094-0.149-0.294-0.189-0.44-0.093-0.146 0.094-0.189 0.292-0.093 0.437l1.489 2.297c-2.685 1.316-4.496 3.796-4.496 6.641 0 0.175 0.011 0.347 0.026 0.518h17.741c0.015-0.171 0.025-0.343 0.025-0.518 0-2.845-1.812-5.325-4.496-6.641zM11.887 6.899c-0.471 0-0.854-0.38-0.854-0.853s0.383-0.851 0.854-0.851c0.474 0 0.854 0.378 0.854 0.851s-0.383 0.853-0.854 0.853zM20.112 6.899c-0.471 0-0.854-0.38-0.854-0.853s0.383-0.851 0.854-0.851c0.473 0 0.853 0.378 0.853 0.851s-0.38 0.853-0.853 0.853z"></path>
<path d="M27.739 10.435h-0.079c-1.051 0-1.91 0.86-1.91 1.908v8.306c0 1.052 0.861 1.909 1.91 1.909h0.081c1.052 0 1.908-0.86 1.908-1.909v-8.306c0-1.048-0.858-1.908-1.909-1.908z"></path>
</symbol>
<symbol id="apple" viewBox="0 0 32 32">
<path d="M4.274 11.763c-2.705 4.695-0.986 11.819 2.006 16.139 1.493 2.16 3.005 4.098 5.076 4.098 0.039 0 0.078-0.001 0.118-0.002 0.973-0.039 1.676-0.338 2.356-0.628 0.763-0.325 1.552-0.662 2.79-0.662 1.178 0 1.929 0.325 2.656 0.64 0.716 0.31 1.454 0.631 2.545 0.61 2.333-0.043 3.765-2.135 5.028-3.981 1.319-1.927 1.98-3.798 2.203-4.513l0.009-0.028c0.043-0.127-0.018-0.266-0.139-0.322-0.003-0.002-0.016-0.007-0.019-0.008-0.411-0.168-4.014-1.766-4.052-6.123-0.035-3.54 2.703-5.414 3.252-5.754l0.026-0.016c0.059-0.038 0.101-0.099 0.115-0.168s-0.001-0.142-0.041-0.2c-1.89-2.766-4.787-3.183-5.953-3.233-0.169-0.017-0.344-0.025-0.519-0.025-1.37 0-2.682 0.517-3.736 0.933-0.728 0.287-1.356 0.535-1.79 0.535-0.487 0-1.119-0.251-1.851-0.541-0.979-0.389-2.088-0.829-3.263-0.829-0.028 0-0.056 0-0.083 0.001-2.731 0.040-5.312 1.603-6.734 4.077z"></path>
<path d="M22.253 0c-1.654 0.067-3.638 1.085-4.823 2.474-1.008 1.167-1.992 3.114-1.733 5.076 0.016 0.123 0.116 0.218 0.24 0.227 0.112 0.009 0.226 0.013 0.339 0.013 1.617 0 3.362-0.895 4.553-2.335 1.254-1.521 1.888-3.473 1.696-5.222-0.015-0.137-0.136-0.239-0.271-0.233z"></path>
</symbol>
</defs>
</svg>
