<svg aria-hidden="true" style="position:absolute;width:0;height:0" xmlns="http://www.w3.org/2000/svg" overflow="hidden"><defs><symbol id="arrow" viewBox="0 0 27 32"><path d="M.057 31.966L0 32V0l26.666 15.933z"/></symbol><symbol id="border" viewBox="0 0 683 32"><path d="M1.392 1.333h679.827l.115 29.333h-680z"/></symbol><symbol id="buff" viewBox="0 0 725 32"><path d="M-.005 0h725.172l.231 32H-.005V0z"/></symbol><symbol id="container" viewBox="0 0 382 32"><path d="M5.206 0h371.091a5.802 5.802 0 015.802 5.802v20.595a5.604 5.604 0 01-5.604 5.604H5.404a5.405 5.405 0 01-5.405-5.405V5.206A5.206 5.206 0 015.205 0z"/></symbol><symbol id="full-screen" viewBox="0 0 32 32"><path d="M13.416 22.88l-4.291-4.293-5.2 5.2-3.955-3.973v12.213h12.203L8.218 28.08zm14.824.907l-5.2-5.2-4.291 4.293 5.197 5.2-3.955 3.947h12.203V19.814zM19.992-.027l3.955 3.947-5.197 5.2 4.291 4.293 5.2-5.2 3.955 3.947V-.027H19.993zM8.219 3.92l3.955-3.947H-.029V12.16l3.955-3.947 5.2 5.2 4.291-4.293z"/></symbol><symbol id="loading-bar" viewBox="0 0 1007 32"><path d="M-.005 0h1006.432l.286 32H-.004V0z"/></symbol><symbol id="vline" viewBox="0 0 9 32"><path d="M0 0l8.614.087V32L0 31.913V0z"/></symbol></defs></svg>